# xmcd
#
# Track frame offsets:
#	150
#	17564
#	35878
#	53328
#	74733
#	95581
#	109574
#	130223
#	158007
#	177764
#	187415
#	203253
#	226842
#
# Disc length: 3354 seconds
#
# Revision: 0
# Processed by: cddbd v1.5.2PL0 Copyright (c) Steve Scherf et al.
# Submitted via: EZCDAudioConverter 1.0.4.1
#
DISCID=a80d180d
DTITLE=Mark Selby - Blue Highway
DYEAR=2013
DGENRE=Blues
TTITLE0=I Will Not Go Quietly
TTITLE1=Change A Comin'
TTITLE2=Gotta Be Enough
TTITLE3=Forty Days, Forty Nights
TTITLE4=Another Man
TTITLE5=This Is Why We Rock and Roll
TTITLE6=A Little While
TTITLE7=Trouble Wants
TTITLE8=Let's Spend The Night Together
TTITLE9=Black Diamond
TTITLE10=Hell's Hip Pocket
TTITLE11=Mile Zero
TTITLE12=Backroad Jam
EXTD=
EXTT0=
EXTT1=
EXTT2=
EXTT3=
EXTT4=
EXTT5=
EXTT6=
EXTT7=
EXTT8=
EXTT9=
EXTT10=
EXTT11=
EXTT12=
PLAYORDER=
